<svg width="9773" height="4089" viewBox="0 0 9773 4089" fill="none" xmlns="http://www.w3.org/2000/svg">
<path d="M6923.1 3828.19L7275.12 4070.21C7319.51 4100.73 7356.4 4091.18 7356.4 4048.14V3658.4C7356.4 3615.36 7319.51 3561.34 7275.12 3538.29L6923.1 3355.59C6888.98 3337.88 6861.93 3353.42 6861.93 3389.89V3720.07C6861.93 3756.54 6888.98 3804.72 6923.1 3828.19" fill="#DBEEF7" fill-opacity="0.11"/>
<path d="M6485.17 3527.09L6731.02 3696.1C6761.31 3716.95 6786.43 3705.44 6786.43 3669.97V3348.84C6786.43 3313.42 6761.31 3271.61 6731.02 3255.88L6485.17 3128.31C6460.82 3115.69 6441.47 3130.66 6441.47 3161.53V3441.13C6441.47 3471.99 6460.82 3510.35 6485.17 3527.09" fill="#76B3E5" fill-opacity="0.11"/>
<path d="M6165.59 3307.38L6346.92 3432.04C6368.95 3447.19 6387.13 3435.22 6387.13 3405.05V3132.03C6387.13 3101.89 6368.95 3068.01 6346.92 3056.57L6165.59 2962.46C6147.36 2953 6132.83 2967.17 6132.83 2993.92V3236.34C6132.83 3263.1 6147.36 3294.83 6165.59 3307.38" fill="#D7EFFB" fill-opacity="0.11"/>
<path d="M5575.52 2901.67L5665.03 2963.22C5675.62 2970.47 5684.3 2959.57 5684.3 2938.78V2750.36C5684.3 2729.58 5675.62 2708.18 5665.03 2702.7L5575.52 2656.25C5566.25 2651.45 5558.85 2663.1 5558.85 2682.24V2855.54C5558.85 2874.66 5566.25 2895.3 5575.52 2901.67" fill="#76B3E5" fill-opacity="0.11"/>
<path d="M5447.82 2813.88L5521.93 2864.81C5530.63 2870.81 5537.75 2860.43 5537.75 2841.56V2670.8C5537.75 2651.93 5530.63 2632.95 5521.93 2628.42L5447.82 2589.97C5440.11 2585.99 5433.94 2596.93 5433.94 2614.41V2772.67C5433.94 2790.16 5440.11 2808.58 5447.82 2813.88" fill="#324DA8" fill-opacity="0.11"/>
<path d="M5340.72 2740.22L5403.08 2783.1C5410.39 2788.13 5416.32 2778.23 5416.32 2760.99V2604.84C5416.32 2587.61 5410.39 2570.53 5403.08 2566.75L5340.72 2534.4C5334.19 2531.01 5328.93 2541.33 5328.93 2557.41V2703.05C5328.93 2719.12 5334.19 2735.75 5340.72 2740.22Z" fill="#D7EFFB" fill-opacity="0.11"/>
<path d="M5249.6 2677.58L5302.82 2714.14C5308.99 2718.42 5314.04 2709 5314.04 2693.12V2549.3C5314.04 2533.42 5308.99 2517.9 5302.82 2514.71L5249.6 2487.09C5244.01 2484.18 5239.52 2493.95 5239.52 2508.83V2643.68C5239.52 2658.56 5244.01 2673.72 5249.6 2677.58" fill="#76B3E5" fill-opacity="0.11"/>
<path d="M5171.15 2623.65L5217.06 2655.22C5222.38 2658.87 5226.72 2649.91 5226.72 2635.21V2501.9C5226.72 2487.18 5222.38 2472.96 5217.06 2470.21L5171.15 2446.39C5166.3 2443.88 5162.43 2453.09 5162.43 2466.96V2592.52C5162.43 2606.4 5166.3 2620.34 5171.15 2623.65Z" fill="#F2FBFE" fill-opacity="0.11"/>
<path d="M7559.97 3569.81L8105.64 3834.57C8176.72 3869.05 8236.22 3853.52 8236.22 3798.78V3303.12C8236.22 3248.38 8176.72 3185.14 8105.64 3162.59L7559.97 2989.84C7508.7 2973.64 7468.27 2996.96 7468.27 3041.48V3444.72C7468.27 3489.24 7508.7 3544.97 7559.97 3569.81Z" fill="#F2FBFE" fill-opacity="0.11"/>
<path d="M6923.1 3260.85L7275.12 3431.63C7319.51 3453.17 7356.4 3436.15 7356.4 3393.13V3003.38C7356.4 2960.36 7319.51 2913.75 7275.12 2899.7L6923.1 2788.24C6888.98 2777.47 6861.93 2798.46 6861.93 2834.93V3165.14C6861.93 3201.59 6888.98 3244.29 6923.1 3260.85Z" fill="#324DA8" fill-opacity="0.11"/>
<path d="M5922.05 2775.17L6061.34 2842.72C6078.07 2850.84 6091.81 2836.26 6091.81 2810.03V2572.56C6091.81 2546.33 6078.07 2520.68 6061.34 2515.39L5922.05 2471.31C5907.91 2466.81 5896.58 2482.43 5896.58 2506.04V2720.01C5896.58 2743.64 5907.91 2768.29 5922.05 2775.17Z" fill="#DBEEF7" fill-opacity="0.11"/>
<path d="M5730.36 2682.14L5840.68 2735.66C5853.78 2742.04 5864.57 2728.44 5864.57 2705.25V2495.12C5864.57 2471.94 5853.78 2449.68 5840.68 2445.52L5730.36 2410.61C5719.05 2407.03 5709.96 2421.3 5709.96 2442.47V2633.94C5709.96 2655.1 5719.05 2676.66 5730.36 2682.14" fill="#76B3E5" fill-opacity="0.11"/>
<path d="M5447.82 2545.08L5521.93 2581.04C5530.63 2585.26 5537.75 2573.42 5537.75 2554.55V2383.8C5537.75 2364.96 5530.63 2347.38 5521.93 2344.63L5447.82 2321.15C5440.11 2318.73 5433.94 2330.97 5433.94 2348.42V2506.69C5433.94 2524.16 5440.11 2541.34 5447.82 2545.08" fill="#76B3E5" fill-opacity="0.11"/>
<path d="M5249.6 2448.89L5302.82 2474.73C5308.99 2477.71 5314.04 2467.29 5314.04 2451.39V2307.58C5314.04 2291.7 5308.99 2277.22 5302.82 2275.24L5249.6 2258.43C5244.01 2256.64 5239.52 2267.3 5239.52 2282.2V2417.06C5239.52 2431.95 5244.01 2446.22 5249.6 2448.89Z" fill="#F2FBFE" fill-opacity="0.11"/>
<path d="M5171.15 2410.83L5217.06 2433.14C5222.38 2435.69 5226.72 2425.86 5226.72 2411.15V2277.83C5226.72 2263.11 5222.38 2249.8 5217.06 2248.11L5171.15 2233.58C5166.3 2232.02 5162.43 2242.07 5162.43 2255.92V2381.5C5162.43 2395.37 5166.3 2408.52 5171.15 2410.83" fill="#76B3E5" fill-opacity="0.11"/>
<path d="M8571.26 3159.62L9529.5 3430.62C9661.3 3467.91 9773 3438.5 9773 3363.32V2682.59C9773 2607.45 9661.3 2533.73 9529.5 2518.65L8571.26 2409.18C8485.76 2399.44 8418.9 2438.18 8418.9 2495.33V3012.99C8418.9 3070.18 8485.76 3135.45 8571.26 3159.62" fill="#76B3E5" fill-opacity="0.11"/>
<path d="M7559.97 2873.61L8105.64 3027.94C8176.72 3048.08 8236.22 3020.47 8236.22 2965.71V2470.03C8236.22 2415.34 8176.72 2364.13 8105.64 2355.98L7559.97 2293.67C7508.7 2287.82 7468.27 2319.32 7468.27 2363.83V2767.04C7468.27 2811.56 7508.7 2859.13 7559.97 2873.61Z" fill="#5169AE" fill-opacity="0.11"/>
<path d="M6485.17 2569.66L6731.02 2639.16C6761.31 2647.73 6786.43 2626.08 6786.43 2590.62V2269.51C6786.43 2234.06 6761.31 2202.43 6731.02 2198.94L6485.17 2170.88C6460.82 2168.09 6441.47 2190.92 6441.47 2221.78V2501.36C6441.47 2532.26 6460.82 2562.75 6485.17 2569.66Z" fill="#324DA8" fill-opacity="0.11"/>
<path d="M5922.05 2410.44L6061.34 2449.82C6078.07 2454.54 6091.81 2437.17 6091.81 2410.92V2173.47C6091.81 2147.25 6078.07 2124.4 6061.34 2122.48L5922.05 2106.56C5907.91 2104.96 5896.58 2122.8 5896.58 2146.43V2360.4C5896.58 2384 5907.91 2406.44 5922.05 2410.44" fill="#DBEEF7" fill-opacity="0.11"/>
<path d="M5575.52 2312.4L5665.03 2337.7C5675.62 2340.72 5684.3 2326.29 5684.3 2305.47V2117.07C5684.3 2096.27 5675.62 2078.4 5665.03 2077.2L5575.52 2066.97C5566.25 2065.9 5558.85 2080.57 5558.85 2099.73V2273.02C5558.85 2292.16 5566.25 2309.75 5575.52 2312.4Z" fill="#5169AE" fill-opacity="0.11"/>
<path d="M5171.15 2198.05L5217.06 2211C5222.38 2212.53 5226.72 2201.83 5226.72 2187.09V2053.77C5226.72 2039.06 5222.38 2026.62 5217.06 2026.03L5171.15 2020.77C5166.3 2020.22 5162.43 2031.04 5162.43 2044.89V2170.45C5162.43 2184.32 5166.3 2196.67 5171.15 2198.05Z" fill="#5169AE" fill-opacity="0.11"/>
<path d="M8571.26 2258.74L9529.5 2335.81C9661.3 2346.41 9773 2294.47 9773 2219.26V1538.58C9773 1463.34 9661.3 1412.25 9529.5 1423.87L8571.26 1508.33C8485.76 1515.85 8418.9 1568.06 8418.9 1625.29V2142.95C8418.9 2200.15 8485.76 2251.84 8571.26 2258.74Z" fill="#324DA8" fill-opacity="0.11"/>
<path d="M7559.97 2177.36L8105.64 2221.27C8176.72 2226.97 8236.22 2187.42 8236.22 2132.65V1636.99C8236.22 1582.2 8176.72 1543.08 8105.64 1549.33L7559.97 1597.45C7508.7 1601.98 7468.27 1641.62 7468.27 1686.14V2089.36C7468.27 2133.93 7508.7 2173.24 7559.97 2177.36" fill="#F2FBFE" fill-opacity="0.11"/>
<path d="M6485.17 2090.93L6731.02 2110.7C6761.31 2113.14 6786.43 2086.42 6786.43 2050.94V1729.86C6786.43 1694.36 6761.31 1667.84 6731.02 1670.52L6485.17 1692.17C6460.82 1694.31 6441.47 1721.06 6441.47 1751.95V2031.5C6441.47 2062.39 6460.82 2088.97 6485.17 2090.93Z" fill="#DBEEF7" fill-opacity="0.11"/>
<path d="M6165.59 2065.22L6346.92 2079.8C6368.95 2081.6 6387.13 2058.6 6387.13 2028.43V1755.42C6387.13 1725.25 6368.95 1702.4 6346.92 1704.34L6165.59 1720.32C6147.36 1721.94 6132.83 1744.89 6132.83 1771.69V2014.09C6132.83 2040.87 6147.36 2063.74 6165.59 2065.22Z" fill="#F2FBFE" fill-opacity="0.11"/>
<path d="M5922.05 2045.63L6061.34 2056.85C6078.07 2058.19 6091.81 2038.03 6091.81 2011.8V1774.33C6091.81 1748.08 6078.07 1728.06 6061.34 1729.52L5922.05 1741.8C5907.91 1743.04 5896.58 1763.19 5896.58 1786.83V2000.79C5896.58 2024.43 5907.91 2044.48 5922.05 2045.63" fill="#D7EFFB" fill-opacity="0.11"/>
<path d="M5730.36 2030.21L5840.68 2039.07C5853.78 2040.16 5864.57 2022.21 5864.57 1998.98V1788.9C5864.57 1765.64 5853.78 1747.82 5840.68 1748.96L5730.36 1758.7C5719.05 1759.7 5709.96 1777.64 5709.96 1798.8V1990.29C5709.96 2011.43 5719.05 2029.31 5730.36 2030.21Z" fill="#324DA8" fill-opacity="0.11"/>
<path d="M5340.72 1998.87L5403.08 2003.9C5410.39 2004.48 5416.32 1990.99 5416.32 1973.75V1817.6C5416.32 1800.36 5410.39 1786.91 5403.08 1787.53L5340.72 1793.05C5334.19 1793.59 5328.93 1807.11 5328.93 1823.21V1968.81C5328.93 1984.9 5334.19 1998.34 5340.72 1998.87" fill="#DBEEF7" fill-opacity="0.11"/>
<path d="M5249.6 1991.52L5302.82 1995.83C5308.99 1996.33 5314.04 1983.86 5314.04 1967.96V1824.14C5314.04 1808.26 5308.99 1795.82 5302.82 1796.39L5249.6 1801.06C5244.01 1801.55 5239.52 1814 5239.52 1828.92V1963.76C5239.52 1978.66 5244.01 1991.1 5249.6 1991.52" fill="#5169AE" fill-opacity="0.11"/>
<path d="M8571.26 1357.86L9529.5 1241.02C9661.3 1224.96 9773 1150.4 9773 1075.21V394.527C9773 319.292 9661.3 290.795 9529.5 329.064L8571.26 607.455C8485.76 632.271 8418.9 698.039 8418.9 755.241V1272.9C8418.9 1330.09 8485.76 1368.29 8571.26 1357.86Z" fill="#76B3E5" fill-opacity="0.11"/>
<path d="M7559.97 1481.16L8105.64 1414.62C8176.72 1405.97 8236.22 1354.33 8236.22 1299.57V803.898C8236.22 749.123 8176.72 722.057 8105.64 742.71L7559.97 901.2C7508.7 916.099 7468.27 963.963 7468.27 1008.48V1411.69C7468.27 1456.25 7508.7 1487.41 7559.97 1481.16" fill="#DBEEF7" fill-opacity="0.11"/>
<path d="M6485.17 1612.2L6731.02 1582.22C6761.31 1578.53 6786.43 1546.74 6786.43 1511.26V1190.14C6786.43 1154.66 6761.31 1133.21 6731.02 1142.03L6485.17 1213.42C6460.82 1220.5 6441.47 1251.16 6441.47 1282.04V1561.62C6441.47 1592.51 6460.82 1615.17 6485.17 1612.2" fill="#D7EFFB" fill-opacity="0.11"/>
<path d="M5922.05 1680.88L6061.34 1663.89C6078.07 1661.85 6091.81 1638.93 6091.81 1612.7V1375.2C6091.81 1348.98 6078.07 1331.7 6061.34 1336.56L5922.05 1377.05C5907.91 1381.14 5896.58 1403.58 5896.58 1427.24V1641.2C5896.58 1664.84 5907.91 1682.61 5922.05 1680.88Z" fill="#F2FBFE" fill-opacity="0.11"/>
<path d="M5575.52 1723.12L5665.03 1712.19C5675.62 1710.91 5684.3 1692.99 5684.3 1672.17V1483.77C5684.3 1462.96 5675.62 1448.62 5665.03 1451.67L5575.52 1477.68C5566.25 1480.4 5558.85 1498.04 5558.85 1517.2V1690.51C5558.85 1709.64 5566.25 1724.25 5575.52 1723.12Z" fill="#D7EFFB" fill-opacity="0.11"/>
<path d="M5249.6 1762.87L5302.82 1756.38C5308.99 1755.63 5314.04 1742.12 5314.04 1726.23V1582.41C5314.04 1566.52 5308.99 1555.12 5302.82 1556.91L5249.6 1572.38C5244.01 1574.01 5239.52 1587.38 5239.52 1602.26V1737.13C5239.52 1752.03 5244.01 1763.55 5249.6 1762.87Z" fill="#76B3E5" fill-opacity="0.11"/>
<path d="M5171.15 1772.42L5217.06 1766.82C5222.38 1766.18 5226.72 1753.69 5226.72 1738.97V1605.66C5226.72 1590.96 5222.38 1580.29 5217.06 1581.8L5171.15 1595.15C5166.3 1596.57 5162.43 1608.94 5162.43 1622.81V1748.35C5162.43 1762.24 5166.3 1772.99 5171.15 1772.42Z" fill="#F2FBFE" fill-opacity="0.11"/>
<path d="M6923.1 991.452L7275.12 877.321C7319.51 862.921 7356.4 816.053 7356.4 773.027V383.286C7356.4 340.228 7319.51 323.529 7275.12 345.388L6923.1 518.906C6888.98 535.701 6861.93 578.615 6861.93 615.083V945.276C6861.93 981.76 6888.98 1002.54 6923.1 991.452Z" fill="#324DA8" fill-opacity="0.11"/>
<path d="M6485.17 1133.46L6731.02 1053.74C6761.31 1043.92 6786.43 1007.04 6786.43 971.58V650.452C6786.43 614.996 6761.31 598.603 6731.02 613.566L6485.17 734.704C6460.82 746.726 6441.47 781.298 6441.47 812.173V1091.74C6441.47 1122.63 6460.82 1141.39 6485.17 1133.46Z" fill="#F2FBFE" fill-opacity="0.11"/>
<path d="M5922.05 1316.11L6061.34 1270.93C6078.07 1265.53 6091.81 1239.78 6091.81 1213.56V976.093C6091.81 949.863 6078.07 935.382 6061.34 943.611L5922.05 1012.26C5907.91 1019.23 5896.58 1043.98 5896.58 1067.61V1281.58C5896.58 1305.21 5907.91 1320.7 5922.05 1316.11Z" fill="#DBEEF7" fill-opacity="0.11"/>
<path d="M5447.82 1469.91L5521.93 1445.89C5530.63 1443.07 5537.75 1425.45 5537.75 1406.58V1235.83C5537.75 1216.96 5530.63 1205.19 5521.93 1209.47L5447.82 1246C5440.11 1249.81 5433.94 1267.02 5433.94 1284.51V1442.78C5433.94 1460.25 5440.11 1472.4 5447.82 1469.91Z" fill="#5169AE" fill-opacity="0.11"/>
<path d="M5340.72 1504.63L5403.08 1484.4C5410.39 1482.05 5416.32 1466.14 5416.32 1448.88V1292.73C5416.32 1275.49 5410.39 1264.44 5403.08 1268.04L5340.72 1298.79C5334.19 1301.99 5328.93 1317.61 5328.93 1333.68V1479.32C5328.93 1495.42 5334.19 1506.75 5340.72 1504.63Z" fill="#DBEEF7" fill-opacity="0.11"/>
<path d="M5171.15 1559.63L5217.06 1544.75C5222.38 1543.03 5226.72 1529.69 5226.72 1514.95V1381.63C5226.72 1366.9 5222.38 1357.12 5217.06 1359.75L5171.15 1382.38C5166.3 1384.76 5162.43 1397.92 5162.43 1411.78V1537.35C5162.43 1551.24 5166.3 1561.2 5171.15 1559.63Z" fill="#DBEEF7" fill-opacity="0.11"/>
<path d="M6485.17 654.778L6731.02 525.331C6761.31 509.339 6786.43 467.389 6786.43 431.917V110.806C6786.43 75.3342 6761.31 64.0188 6731.02 85.122L6485.17 256.004C6460.82 272.929 6441.47 311.454 6441.47 342.313V621.894C6441.47 652.785 6460.82 667.588 6485.17 654.778" fill="#D7EFFB" fill-opacity="0.11"/>
<path d="M6165.59 823.073L6346.92 727.586C6368.95 715.966 6387.13 681.989 6387.13 651.804V378.766C6387.13 348.598 6368.95 336.8 6346.92 352.134L6165.59 478.19C6147.36 490.871 6132.83 522.662 6132.83 549.455V791.86C6132.83 818.653 6147.36 832.684 6165.59 823.073Z" fill="#F2FBFE" fill-opacity="0.11"/>
<path d="M5922.05 951.337L6061.34 877.998C6078.07 869.174 6091.81 840.678 6091.81 814.464V576.961C6091.81 550.731 6078.07 539.03 6061.34 550.667L5922.05 647.487C5907.91 657.34 5896.58 684.357 5896.58 708.016V921.957C5896.58 945.583 5907.91 958.811 5922.05 951.337" fill="#324DA8" fill-opacity="0.11"/>
<path d="M5730.36 1052.32L5840.68 994.201C5853.78 987.289 5864.57 962.795 5864.57 939.602V729.503C5864.57 706.263 5853.78 694.964 5840.68 704.077L5730.36 780.774C5719.05 788.65 5709.96 812.084 5709.96 833.235V1024.74C5709.96 1045.91 5719.05 1058.28 5730.36 1052.32Z" fill="#DBEEF7" fill-opacity="0.11"/>
<path d="M5575.52 1133.87L5665.03 1086.69C5675.62 1081.15 5684.3 1059.69 5684.3 1038.89V850.46C5684.3 829.679 5675.62 818.829 5665.03 826.175L5575.52 888.407C5566.25 894.868 5558.85 915.537 5558.85 934.68V1107.97C5558.85 1127.1 5566.25 1138.72 5575.52 1133.87" fill="#76B3E5" fill-opacity="0.11"/>
<path d="M5249.6 1305.49L5302.82 1277.46C5308.99 1274.21 5314.04 1258.69 5314.04 1242.79V1098.96C5314.04 1083.1 5308.99 1073.72 5302.82 1078.02L5249.6 1115C5244.01 1118.87 5239.52 1134.09 5239.52 1148.98V1283.82C5239.52 1298.74 5244.01 1308.43 5249.6 1305.49Z" fill="#76B3E5" fill-opacity="0.11"/>
<path d="M5171.15 1346.82L5217.06 1322.63C5222.38 1319.83 5226.72 1305.61 5226.72 1290.87V1157.56C5226.72 1142.84 5222.38 1133.94 5217.06 1137.62L5171.15 1169.57C5166.3 1172.93 5162.43 1186.88 5162.43 1200.73V1326.31C5162.43 1340.18 5166.3 1349.36 5171.15 1346.82Z" fill="#76B3E5" fill-opacity="0.11"/>
<path d="M5249.6 1076.81L5302.82 1038.02C5308.99 1033.52 5314.04 1016.94 5314.04 1001.06V857.241C5314.04 841.361 5308.99 833.019 5302.82 838.564L5249.6 886.332C5244.01 891.33 5239.52 907.419 5239.52 922.334V1057.17C5239.52 1072.08 5244.01 1080.89 5249.6 1076.81" fill="#D7EFFB" fill-opacity="0.11"/>
<path d="M5171.15 1134.03L5217.06 1100.55C5222.38 1096.65 5226.72 1081.54 5226.72 1066.82V933.513C5226.72 918.807 5222.38 910.771 5217.06 915.544L5171.15 956.754C5166.3 961.093 5162.43 975.832 5162.43 989.702V1115.28C5162.43 1129.13 5166.3 1137.54 5171.15 1134.03" fill="#D7EFFB" fill-opacity="0.11"/>
<path d="M5730.36 400.368L5840.68 297.633C5853.78 285.418 5864.57 256.568 5864.57 233.359V23.2278C5864.57 0.0192168 5853.78 -6.90804 5840.68 7.52502L5730.36 128.84C5719.05 141.312 5709.96 168.426 5709.96 189.578V381.065C5709.96 402.216 5719.05 410.927 5730.36 400.368Z" fill="#F2FBFE" fill-opacity="0.11"/>
<path d="M5447.82 663.523L5521.93 594.476C5530.63 586.391 5537.75 564.452 5537.75 545.583V374.813C5537.75 355.96 5530.63 348.535 5521.93 358.082L5447.82 439.617C5440.11 448.088 5433.94 469.078 5433.94 486.549V644.815C5433.94 662.269 5440.11 670.675 5447.82 663.523" fill="#DBEEF7" fill-opacity="0.11"/>
<path d="M5101.3 2575.62L5141.22 2603.09C5145.84 2606.22 5149.58 2597.72 5149.58 2584.01V2460.01C5149.58 2446.3 5145.84 2433.25 5141.22 2430.86L5101.3 2410.14C5097.07 2407.94 5093.7 2416.7 5093.7 2429.67V2546.93C5093.7 2559.89 5097.07 2572.75 5101.3 2575.62" fill="#F2FBFE" fill-opacity="0.11"/>
<path d="M4988.62 2498.17L5019.77 2519.57C5023.33 2522.02 5026.26 2514.25 5026.26 2502.22V2393.04C5026.26 2380.99 5023.33 2369.69 5019.77 2367.79L4988.62 2351.66C4985.34 2349.95 4982.65 2357.89 4982.65 2369.35V2473.28C4982.65 2484.75 4985.34 2495.89 4988.62 2498.17Z" fill="#F2FBFE" fill-opacity="0.11"/>
<path d="M4941.48 2465.73L4969.25 2484.84C4972.45 2487.03 4975.04 2479.58 4975.04 2468.2V2365.21C4975.04 2353.85 4972.45 2343.27 4969.25 2341.6L4941.48 2327.19C4938.5 2325.64 4936.14 2333.23 4936.14 2344.08V2442.39C4936.14 2453.27 4938.5 2463.7 4941.48 2465.73" fill="#DBEEF7" fill-opacity="0.11"/>
<path d="M5101.3 2376.95L5141.22 2396.32C5145.84 2398.55 5149.58 2389.28 5149.58 2375.57V2251.57C5149.58 2237.84 5145.84 2225.58 5141.22 2224.1L5101.3 2211.49C5097.07 2210.12 5093.7 2219.57 5093.7 2232.49V2349.8C5093.7 2362.77 5097.07 2374.89 5101.3 2376.95Z" fill="#DBEEF7" fill-opacity="0.11"/>
<path d="M4941.48 2299.39L4969.25 2312.88C4972.45 2314.43 4975.04 2306.45 4975.04 2295.08V2192.09C4975.04 2180.71 4972.45 2170.68 4969.25 2169.64L4941.48 2160.83C4938.5 2159.93 4936.14 2167.97 4936.14 2178.83V2277.16C4936.14 2288.01 4938.5 2297.96 4941.48 2299.39" fill="#DBEEF7" fill-opacity="0.11"/>
<path d="M5922.05 3883.32L6061.34 4036.52C6078.07 4054.91 6091.81 4048.77 6091.81 4022.54V3785.07C6091.81 3758.84 6078.07 3724.77 6061.34 3709.19L5922.05 3579.49C5907.91 3566.27 5896.58 3574.89 5896.58 3598.52V3812.47C5896.58 3836.12 5907.91 3867.75 5922.05 3883.32" fill="#F2FBFE" fill-opacity="0.11"/>
<path d="M5730.36 3672.44L5840.68 3793.76C5853.78 3808.21 5864.57 3801.26 5864.57 3778.02V3567.92C5864.57 3544.75 5853.78 3515.87 5840.68 3503.65L5730.36 3400.92C5719.05 3390.36 5709.96 3399.05 5709.96 3420.2V3611.71C5709.96 3632.84 5719.05 3659.99 5730.36 3672.44Z" fill="#DBEEF7" fill-opacity="0.11"/>
<path d="M5340.72 3243.86L5403.08 3312.47C5410.39 3320.49 5416.32 3313.05 5416.32 3295.81V3139.66C5416.32 3122.42 5410.39 3102.89 5403.08 3096.11L5340.72 3038.02C5334.19 3031.96 5328.93 3040.11 5328.93 3056.17V3201.8C5328.93 3217.89 5334.19 3236.69 5340.72 3243.86Z" fill="#D7EFFB" fill-opacity="0.11"/>
<path d="M5249.6 3143.63L5302.82 3202.15C5308.99 3208.95 5314.04 3201.62 5314.04 3185.78V3041.96C5314.04 3026.05 5308.99 3008.46 5302.82 3002.69L5249.6 2953.13C5244.01 2947.94 5239.52 2955.84 5239.52 2970.73V3105.59C5239.52 3120.46 5244.01 3137.49 5249.6 3143.63" fill="#DBEEF7" fill-opacity="0.11"/>
<path d="M6165.59 3737.13L6346.92 3899.91C6368.95 3919.66 6387.13 3911.5 6387.13 3881.38V3608.34C6387.13 3578.2 6368.95 3540.48 6346.92 3524.41L6165.59 3392.23C6147.36 3378.94 6132.83 3390.06 6132.83 3416.82V3659.22C6132.83 3686 6147.36 3720.75 6165.59 3737.13" fill="#D7EFFB" fill-opacity="0.11"/>
<path d="M5922.05 3518.57L6061.34 3643.58C6078.07 3658.57 6091.81 3649.64 6091.81 3623.42V3385.97C6091.81 3359.74 6078.07 3328.43 6061.34 3316.25L5922.05 3214.72C5907.91 3204.4 5896.58 3215.29 5896.58 3238.92V3452.88C5896.58 3476.52 5907.91 3505.84 5922.05 3518.57" fill="#DBEEF7" fill-opacity="0.11"/>
<path d="M5575.52 3207.46L5665.03 3287.83C5675.62 3297.32 5684.3 3288.25 5684.3 3267.42V3079.02C5684.3 3058.21 5675.62 3035.01 5665.03 3027.32L5575.52 2962.04C5566.25 2955.29 5558.85 2965.42 5558.85 2984.55V3157.86C5558.85 3176.98 5566.25 3199.15 5575.52 3207.46" fill="#F2FBFE" fill-opacity="0.11"/>
<path d="M5340.72 2996.72L5403.08 3052.71C5410.39 3059.23 5416.32 3050.6 5416.32 3033.35V2877.23C5416.32 2859.96 5410.39 2841.66 5403.08 2836.35L5340.72 2790.87C5334.19 2786.13 5328.93 2795.35 5328.93 2811.44V2957.04C5328.93 2973.13 5334.19 2990.87 5340.72 2996.72" fill="#DBEEF7" fill-opacity="0.11"/>
<path d="M5249.6 2914.96L5302.82 2962.71C5308.99 2968.27 5314.04 2959.93 5314.04 2944.06V2800.23C5314.04 2784.33 5308.99 2767.78 5302.82 2763.28L5249.6 2724.46C5244.01 2720.4 5239.52 2729.21 5239.52 2744.09V2878.94C5239.52 2893.84 5244.01 2909.96 5249.6 2914.96" fill="#F2FBFE" fill-opacity="0.11"/>
<path d="M5101.3 2781.83L5141.22 2817.68C5145.84 2821.8 5149.58 2814.05 5149.58 2800.37V2676.37C5149.58 2662.65 5145.84 2648.81 5141.22 2645.45L5101.3 2616.34C5097.07 2613.27 5093.7 2621.31 5093.7 2634.26V2751.55C5093.7 2764.5 5097.07 2778.06 5101.3 2781.83Z" fill="#DBEEF7" fill-opacity="0.11"/>
<path d="M5041.54 2728.19L5076.66 2759.71C5080.69 2763.36 5083.99 2755.91 5083.99 2743.06V2626.93C5083.99 2614.12 5080.69 2601.31 5076.66 2598.37L5041.54 2572.77C5037.83 2570.05 5034.81 2577.75 5034.81 2589.93V2700.11C5034.81 2712.29 5037.83 2724.83 5041.54 2728.19Z" fill="#D7EFFB" fill-opacity="0.11"/>
<path d="M5101.3 2178.3L5141.22 2189.57C5145.84 2190.87 5149.58 2180.82 5149.58 2167.16V2043.11C5149.58 2029.44 5145.84 2017.9 5141.22 2017.37L5101.3 2012.79C5097.07 2012.3 5093.7 2022.43 5093.7 2035.4V2152.68C5093.7 2165.63 5097.07 2177.11 5101.3 2178.3" fill="#324DA8" fill-opacity="0.11"/>
<path d="M4988.62 2146.43L5019.77 2155.22C5023.33 2156.27 5026.26 2147.28 5026.26 2135.24V2026.05C5026.26 2014.01 5023.33 2003.9 5019.77 2003.48L4988.62 1999.95C4985.34 1999.54 4982.65 2008.54 4982.65 2020.05V2123.94C4982.65 2135.42 4985.34 2145.48 4988.62 2146.43Z" fill="#DBEEF7" fill-opacity="0.11"/>
<path d="M4941.48 2133.08L4969.25 2140.94C4972.45 2141.86 4975.04 2133.34 4975.04 2121.96V2018.97C4975.04 2007.61 4972.45 1998.06 4969.25 1997.72L4941.48 1994.54C4938.5 1994.2 4936.14 2002.74 4936.14 2013.59V2111.9C4936.14 2122.75 4938.5 2132.25 4941.48 2133.08Z" fill="#F2FBFE" fill-opacity="0.11"/>
<path d="M4899.16 2121.15L4924.13 2128.17C4926.96 2128.99 4929.32 2120.92 4929.32 2110.14V2012.66C4929.32 2001.89 4926.96 1992.87 4924.13 1992.55L4899.16 1989.72C4896.5 1989.39 4894.33 1997.52 4894.33 2007.82V2101.11C4894.33 2111.41 4896.5 2120.38 4899.16 2121.15" fill="#5169AE" fill-opacity="0.11"/>
<path d="M5101.3 1979.6L5141.22 1982.81C5145.84 1983.18 5149.58 1972.4 5149.58 1958.67V1834.64C5149.58 1820.98 5145.84 1810.2 5141.22 1810.6L5101.3 1814.12C5097.07 1814.5 5093.7 1825.29 5093.7 1838.26V1955.54C5093.7 1968.51 5097.07 1979.28 5101.3 1979.6" fill="#DBEEF7" fill-opacity="0.11"/>
<path d="M5041.54 1974.81L5076.66 1977.64C5080.69 1977.94 5083.99 1967.83 5083.99 1955.01V1838.87C5083.99 1826.04 5080.69 1815.95 5076.66 1816.3L5041.54 1819.37C5037.83 1819.73 5034.81 1829.85 5034.81 1842.02V1952.24C5034.81 1964.41 5037.83 1974.52 5041.54 1974.81Z" fill="#F2FBFE" fill-opacity="0.11"/>
<path d="M4941.48 1966.75L4969.25 1969C4972.45 1969.22 4975.04 1960.22 4975.04 1948.86V1845.87C4975.04 1834.46 4972.45 1825.49 4969.25 1825.75L4941.48 1828.2C4938.5 1828.46 4936.14 1837.48 4936.14 1848.33V1946.66C4936.14 1957.52 4938.5 1966.52 4941.48 1966.75Z" fill="#324DA8" fill-opacity="0.11"/>
<path d="M4899.16 1963.37L4924.13 1965.38C4926.96 1965.58 4929.32 1957.05 4929.32 1946.28V1848.79C4929.32 1838 4926.96 1829.5 4924.13 1829.76L4899.16 1831.94C4896.5 1832.17 4894.33 1840.72 4894.33 1851.04V1944.32C4894.33 1954.62 4896.5 1963.16 4899.16 1963.37Z" fill="#76B3E5" fill-opacity="0.11"/>
<path d="M5101.3 1780.94L5141.22 1776.07C5145.84 1775.51 5149.58 1763.94 5149.58 1750.24V1626.23C5149.58 1612.52 5145.84 1602.49 5141.22 1603.86L5101.3 1615.45C5097.07 1616.67 5093.7 1628.16 5093.7 1641.1V1758.41C5093.7 1771.36 5097.07 1781.44 5101.3 1780.94" fill="#D7EFFB" fill-opacity="0.11"/>
<path d="M4988.62 1794.67L5019.77 1790.88C5023.33 1790.43 5026.26 1780.34 5026.26 1768.27V1659.09C5026.26 1647.03 5023.33 1638.11 5019.77 1639.13L4988.62 1648.17C4985.34 1649.14 4982.65 1659.2 4982.65 1670.71V1774.62C4982.65 1786.09 4985.34 1795.08 4988.62 1794.67Z" fill="#F2FBFE" fill-opacity="0.11"/>
<path d="M4941.48 1800.42L4969.25 1797.03C4972.45 1796.64 4975.04 1787.09 4975.04 1775.73V1672.72C4975.04 1661.33 4972.45 1652.86 4969.25 1653.79L4941.48 1661.86C4938.5 1662.74 4936.14 1672.23 4936.14 1683.09V1781.41C4936.14 1792.27 4938.5 1800.77 4941.48 1800.42" fill="#DBEEF7" fill-opacity="0.11"/>
<path d="M5101.3 1582.26L5141.22 1569.34C5145.84 1567.83 5149.58 1555.5 5149.58 1541.79V1417.79C5149.58 1404.08 5145.84 1394.84 5141.22 1397.11L5101.3 1416.76C5097.07 1418.87 5093.7 1431.02 5093.7 1443.98V1561.29C5093.7 1574.23 5097.07 1583.63 5101.3 1582.26Z" fill="#F2FBFE" fill-opacity="0.11"/>
<path d="M5041.54 1601.63L5076.66 1590.27C5080.69 1588.95 5083.99 1577.47 5083.99 1564.66V1448.52C5083.99 1435.7 5080.69 1426.92 5076.66 1428.92L5041.54 1446.21C5037.83 1448.09 5034.81 1459.42 5034.81 1471.61V1581.78C5034.81 1593.98 5037.83 1602.87 5041.54 1601.63" fill="#76B3E5" fill-opacity="0.11"/>
<path d="M5101.3 1383.6L5141.22 1362.58C5145.84 1360.15 5149.58 1347.07 5149.58 1333.36V1209.34C5149.58 1195.62 5145.84 1187.13 5141.22 1190.35L5101.3 1218.09C5097.07 1221.04 5093.7 1233.89 5093.7 1246.86V1364.14C5093.7 1377.11 5097.07 1385.82 5101.3 1383.6" fill="#D7EFFB" fill-opacity="0.11"/>
<path d="M5041.54 1415.06L5076.66 1396.6C5080.69 1394.46 5083.99 1382.32 5083.99 1369.48V1253.37C5083.99 1240.55 5080.69 1232.43 5076.66 1235.25L5041.54 1259.66C5037.83 1262.25 5034.81 1274.19 5034.81 1286.37V1396.6C5034.81 1408.75 5037.83 1417.02 5041.54 1415.06Z" fill="#F2FBFE" fill-opacity="0.11"/>
<path d="M4988.62 1442.91L5019.77 1426.54C5023.33 1424.65 5026.26 1413.35 5026.26 1401.28V1292.11C5026.26 1280.06 5023.33 1272.3 5019.77 1274.79L4988.62 1296.42C4985.34 1298.74 4982.65 1309.89 4982.65 1321.35V1425.29C4982.65 1436.77 4985.34 1444.69 4988.62 1442.91" fill="#324DA8" fill-opacity="0.11"/>
<path d="M5249.6 848.142L5302.82 798.575C5308.99 792.805 5314.04 775.206 5314.04 759.326V615.509C5314.04 599.63 5308.99 592.317 5302.82 599.116L5249.6 657.652C5244.01 663.791 5239.52 680.78 5239.52 695.679V830.543C5239.52 845.442 5244.01 853.334 5249.6 848.142" fill="#D7EFFB" fill-opacity="0.11"/>
<path d="M2849.84 3828.19L2497.84 4070.21C2453.43 4100.73 2416.52 4091.18 2416.52 4048.14V3658.4C2416.52 3615.36 2453.43 3561.34 2497.84 3538.29L2849.84 3355.59C2883.98 3337.88 2911.03 3353.42 2911.03 3389.89V3720.07C2911.03 3756.54 2883.98 3804.72 2849.84 3828.19" fill="#DBEEF7" fill-opacity="0.11"/>
<path d="M3287.76 3527.09L3041.94 3696.1C3011.61 3716.95 2986.52 3705.44 2986.52 3669.97V3348.84C2986.52 3313.42 3011.61 3271.61 3041.94 3255.88L3287.76 3128.31C3312.13 3115.69 3331.47 3130.66 3331.47 3161.53V3441.13C3331.47 3471.99 3312.13 3510.35 3287.76 3527.09" fill="#76B3E5" fill-opacity="0.11"/>
<path d="M3607.33 3307.38L3426.02 3432.04C3403.98 3447.19 3385.82 3435.22 3385.82 3405.05V3132.03C3385.82 3101.89 3403.98 3068.01 3426.02 3056.57L3607.33 2962.46C3625.59 2953 3640.14 2967.17 3640.14 2993.92V3236.34C3640.14 3263.1 3625.59 3294.83 3607.33 3307.38" fill="#D7EFFB" fill-opacity="0.11"/>
<path d="M4197.43 2901.67L4107.89 2963.22C4097.32 2970.47 4088.66 2959.57 4088.66 2938.78V2750.36C4088.66 2729.58 4097.32 2708.18 4107.89 2702.7L4197.43 2656.25C4206.69 2651.45 4214.1 2663.1 4214.1 2682.24V2855.54C4214.1 2874.66 4206.69 2895.3 4197.43 2901.67" fill="#76B3E5" fill-opacity="0.11"/>
<path d="M4325.13 2813.88L4251.02 2864.81C4242.32 2870.81 4235.17 2860.43 4235.17 2841.56V2670.8C4235.17 2651.93 4242.32 2632.95 4251.02 2628.42L4325.13 2589.97C4332.83 2585.99 4339.02 2596.93 4339.02 2614.41V2772.67C4339.02 2790.16 4332.83 2808.58 4325.13 2813.88" fill="#324DA8" fill-opacity="0.11"/>
<path d="M4432.22 2740.22L4369.84 2783.1C4362.58 2788.13 4356.61 2778.23 4356.61 2760.99V2604.84C4356.61 2587.61 4362.58 2570.53 4369.84 2566.75L4432.22 2534.4C4438.73 2531.01 4443.99 2541.33 4443.99 2557.41V2703.05C4443.99 2719.12 4438.73 2735.75 4432.22 2740.22Z" fill="#D7EFFB" fill-opacity="0.11"/>
<path d="M4523.33 2677.58L4470.15 2714.14C4463.96 2718.42 4458.87 2709 4458.87 2693.12V2549.3C4458.87 2533.42 4463.96 2517.9 4470.15 2514.71L4523.33 2487.09C4528.93 2484.18 4533.4 2493.95 4533.4 2508.83V2643.68C4533.4 2658.56 4528.93 2673.72 4523.33 2677.58" fill="#76B3E5" fill-opacity="0.11"/>
<path d="M4601.82 2623.65L4555.88 2655.22C4550.56 2658.87 4546.21 2649.91 4546.21 2635.21V2501.9C4546.21 2487.18 4550.56 2472.96 4555.88 2470.21L4601.82 2446.39C4606.65 2443.88 4610.53 2453.09 4610.53 2466.96V2592.52C4610.53 2606.4 4606.65 2620.34 4601.82 2623.65Z" fill="#F2FBFE" fill-opacity="0.11"/>
<path d="M2213 3569.81L1667.29 3834.57C1596.2 3869.05 1536.72 3853.52 1536.72 3798.78V3303.12C1536.72 3248.38 1596.2 3185.14 1667.29 3162.59L2213 2989.84C2264.22 2973.64 2304.68 2996.96 2304.68 3041.48V3444.72C2304.68 3489.24 2264.22 3544.97 2213 3569.81Z" fill="#F2FBFE" fill-opacity="0.11"/>
<path d="M2849.84 3260.85L2497.84 3431.63C2453.43 3453.17 2416.52 3436.15 2416.52 3393.13V3003.38C2416.52 2960.36 2453.43 2913.75 2497.84 2899.7L2849.84 2788.24C2883.98 2777.47 2911.03 2798.46 2911.03 2834.93V3165.14C2911.03 3201.59 2883.98 3244.29 2849.84 3260.85Z" fill="#324DA8" fill-opacity="0.11"/>
<path d="M3850.88 2775.17L3711.58 2842.72C3694.87 2850.84 3681.11 2836.26 3681.11 2810.03V2572.56C3681.11 2546.33 3694.87 2520.68 3711.58 2515.39L3850.88 2471.31C3865.02 2466.81 3876.34 2482.43 3876.34 2506.04V2720.01C3876.34 2743.64 3865.02 2768.29 3850.88 2775.17Z" fill="#DBEEF7" fill-opacity="0.11"/>
<path d="M4042.58 2682.14L3932.26 2735.66C3919.14 2742.04 3908.36 2728.44 3908.36 2705.25V2495.12C3908.36 2471.94 3919.14 2449.68 3932.26 2445.52L4042.58 2410.61C4053.92 2407.03 4062.97 2421.3 4062.97 2442.47V2633.94C4062.97 2655.1 4053.92 2676.66 4042.58 2682.14" fill="#76B3E5" fill-opacity="0.11"/>
<path d="M4325.13 2545.08L4251.02 2581.04C4242.32 2585.26 4235.17 2573.42 4235.17 2554.55V2383.8C4235.17 2364.96 4242.32 2347.38 4251.02 2344.63L4325.13 2321.15C4332.83 2318.73 4339.02 2330.97 4339.02 2348.42V2506.69C4339.02 2524.16 4332.83 2541.34 4325.13 2545.08" fill="#76B3E5" fill-opacity="0.11"/>
<path d="M4523.33 2448.89L4470.15 2474.73C4463.96 2477.71 4458.87 2467.29 4458.87 2451.39V2307.58C4458.87 2291.7 4463.96 2277.22 4470.15 2275.24L4523.33 2258.43C4528.93 2256.64 4533.4 2267.3 4533.4 2282.2V2417.06C4533.4 2431.95 4528.93 2446.22 4523.33 2448.89Z" fill="#F2FBFE" fill-opacity="0.11"/>
<path d="M4601.82 2410.83L4555.88 2433.14C4550.56 2435.69 4546.21 2425.86 4546.21 2411.15V2277.83C4546.21 2263.11 4550.56 2249.8 4555.88 2248.11L4601.82 2233.58C4606.65 2232.02 4610.53 2242.07 4610.53 2255.92V2381.5C4610.53 2395.37 4606.65 2408.52 4601.82 2410.83" fill="#76B3E5" fill-opacity="0.11"/>
<path d="M1201.67 3159.62L243.385 3430.62C111.607 3467.91 0 3438.5 0 3363.32V2682.59C0 2607.45 111.607 2533.73 243.385 2518.65L1201.67 2409.18C1287.15 2399.44 1353.99 2438.18 1353.99 2495.33V3012.99C1353.99 3070.18 1287.15 3135.45 1201.67 3159.62" fill="#76B3E5" fill-opacity="0.11"/>
<path d="M2213 2873.61L1667.29 3027.94C1596.2 3048.08 1536.72 3020.47 1536.72 2965.71V2470.03C1536.72 2415.34 1596.2 2364.13 1667.29 2355.98L2213 2293.67C2264.22 2287.82 2304.68 2319.32 2304.68 2363.83V2767.04C2304.68 2811.56 2264.22 2859.13 2213 2873.61Z" fill="#5169AE" fill-opacity="0.11"/>
<path d="M3287.76 2569.66L3041.94 2639.16C3011.61 2647.73 2986.52 2626.08 2986.52 2590.62V2269.51C2986.52 2234.06 3011.61 2202.43 3041.94 2198.94L3287.76 2170.88C3312.13 2168.09 3331.47 2190.92 3331.47 2221.78V2501.36C3331.47 2532.26 3312.13 2562.75 3287.76 2569.66Z" fill="#324DA8" fill-opacity="0.11"/>
<path d="M3850.88 2410.44L3711.58 2449.82C3694.87 2454.54 3681.11 2437.17 3681.11 2410.92V2173.47C3681.11 2147.25 3694.87 2124.4 3711.58 2122.48L3850.88 2106.56C3865.02 2104.96 3876.34 2122.8 3876.34 2146.43V2360.4C3876.34 2384 3865.02 2406.44 3850.88 2410.44" fill="#DBEEF7" fill-opacity="0.11"/>
<path d="M4197.43 2312.4L4107.89 2337.7C4097.32 2340.72 4088.66 2326.29 4088.66 2305.47V2117.07C4088.66 2096.27 4097.32 2078.4 4107.89 2077.2L4197.43 2066.97C4206.69 2065.9 4214.1 2080.57 4214.1 2099.73V2273.02C4214.1 2292.16 4206.69 2309.75 4197.43 2312.4Z" fill="#5169AE" fill-opacity="0.11"/>
<path d="M4601.82 2198.05L4555.88 2211C4550.56 2212.53 4546.21 2201.83 4546.21 2187.09V2053.77C4546.21 2039.06 4550.56 2026.62 4555.88 2026.03L4601.82 2020.77C4606.65 2020.22 4610.53 2031.04 4610.53 2044.89V2170.45C4610.53 2184.32 4606.65 2196.67 4601.82 2198.05Z" fill="#5169AE" fill-opacity="0.11"/>
<path d="M1201.67 2258.74L243.385 2335.81C111.607 2346.41 0 2294.47 0 2219.26V1538.58C0 1463.34 111.607 1412.25 243.385 1423.87L1201.67 1508.33C1287.15 1515.85 1353.99 1568.06 1353.99 1625.29V2142.95C1353.99 2200.15 1287.15 2251.84 1201.67 2258.74" fill="#324DA8" fill-opacity="0.11"/>
<path d="M2213 2177.36L1667.29 2221.27C1596.2 2226.97 1536.72 2187.42 1536.72 2132.65V1636.99C1536.72 1582.2 1596.2 1543.08 1667.29 1549.33L2213 1597.45C2264.22 1601.98 2304.68 1641.62 2304.68 1686.14V2089.36C2304.68 2133.93 2264.22 2173.24 2213 2177.36" fill="#F2FBFE" fill-opacity="0.11"/>
<path d="M3287.76 2090.93L3041.94 2110.7C3011.61 2113.14 2986.52 2086.42 2986.52 2050.94V1729.86C2986.52 1694.36 3011.61 1667.84 3041.94 1670.52L3287.76 1692.17C3312.13 1694.31 3331.47 1721.06 3331.47 1751.95V2031.5C3331.47 2062.39 3312.13 2088.97 3287.76 2090.93Z" fill="#DBEEF7" fill-opacity="0.11"/>
<path d="M3607.33 2065.22L3426.02 2079.8C3403.98 2081.6 3385.82 2058.6 3385.82 2028.43V1755.42C3385.82 1725.25 3403.98 1702.4 3426.02 1704.34L3607.33 1720.32C3625.59 1721.94 3640.14 1744.89 3640.14 1771.69V2014.09C3640.14 2040.87 3625.59 2063.74 3607.33 2065.22Z" fill="#F2FBFE" fill-opacity="0.11"/>
<path d="M3850.88 2045.63L3711.58 2056.85C3694.87 2058.19 3681.11 2038.03 3681.11 2011.8V1774.33C3681.11 1748.08 3694.87 1728.06 3711.58 1729.52L3850.88 1741.8C3865.02 1743.04 3876.34 1763.19 3876.34 1786.83V2000.79C3876.34 2024.43 3865.02 2044.48 3850.88 2045.63" fill="#D7EFFB" fill-opacity="0.11"/>
<path d="M4042.58 2030.21L3932.26 2039.07C3919.14 2040.16 3908.36 2022.21 3908.36 1998.98V1788.9C3908.36 1765.64 3919.14 1747.82 3932.26 1748.96L4042.58 1758.7C4053.92 1759.7 4062.97 1777.64 4062.97 1798.8V1990.29C4062.97 2011.43 4053.92 2029.31 4042.58 2030.21Z" fill="#324DA8" fill-opacity="0.11"/>
<path d="M4432.22 1998.87L4369.84 2003.9C4362.58 2004.48 4356.61 1990.99 4356.61 1973.75V1817.6C4356.61 1800.36 4362.58 1786.91 4369.84 1787.53L4432.22 1793.05C4438.73 1793.59 4443.99 1807.11 4443.99 1823.21V1968.81C4443.99 1984.9 4438.73 1998.34 4432.22 1998.87" fill="#DBEEF7" fill-opacity="0.11"/>
<path d="M4523.33 1991.52L4470.15 1995.83C4463.96 1996.33 4458.87 1983.86 4458.87 1967.96V1824.14C4458.87 1808.26 4463.96 1795.82 4470.15 1796.39L4523.33 1801.06C4528.93 1801.55 4533.4 1814 4533.4 1828.92V1963.76C4533.4 1978.66 4528.93 1991.1 4523.33 1991.52" fill="#5169AE" fill-opacity="0.11"/>
<path d="M1201.67 1357.86L243.385 1241.02C111.607 1224.96 0 1150.4 0 1075.21V394.527C0 319.292 111.607 290.795 243.385 329.064L1201.67 607.455C1287.15 632.271 1353.99 698.039 1353.99 755.241V1272.9C1353.99 1330.09 1287.15 1368.29 1201.67 1357.86" fill="#76B3E5" fill-opacity="0.11"/>
<path d="M2213 1481.16L1667.29 1414.62C1596.2 1405.97 1536.72 1354.33 1536.72 1299.57V803.898C1536.72 749.123 1596.2 722.057 1667.29 742.71L2213 901.2C2264.22 916.099 2304.68 963.963 2304.68 1008.48V1411.69C2304.68 1456.25 2264.22 1487.41 2213 1481.16" fill="#DBEEF7" fill-opacity="0.11"/>
<path d="M3287.76 1612.2L3041.94 1582.22C3011.61 1578.53 2986.52 1546.74 2986.52 1511.26V1190.14C2986.52 1154.66 3011.61 1133.21 3041.94 1142.03L3287.76 1213.42C3312.13 1220.5 3331.47 1251.16 3331.47 1282.04V1561.62C3331.47 1592.51 3312.13 1615.17 3287.76 1612.2" fill="#D7EFFB" fill-opacity="0.11"/>
<path d="M3850.88 1680.88L3711.58 1663.89C3694.87 1661.85 3681.11 1638.93 3681.11 1612.7V1375.2C3681.11 1348.98 3694.87 1331.7 3711.58 1336.56L3850.88 1377.05C3865.02 1381.14 3876.34 1403.58 3876.34 1427.24V1641.2C3876.34 1664.84 3865.02 1682.61 3850.88 1680.88Z" fill="#F2FBFE" fill-opacity="0.11"/>
<path d="M4197.43 1723.12L4107.89 1712.19C4097.32 1710.91 4088.66 1692.99 4088.66 1672.17V1483.77C4088.66 1462.96 4097.32 1448.62 4107.89 1451.67L4197.43 1477.68C4206.69 1480.4 4214.1 1498.04 4214.1 1517.2V1690.51C4214.1 1709.64 4206.69 1724.25 4197.43 1723.12Z" fill="#D7EFFB" fill-opacity="0.11"/>
<path d="M4523.33 1762.87L4470.15 1756.38C4463.96 1755.63 4458.87 1742.12 4458.87 1726.23V1582.41C4458.87 1566.52 4463.96 1555.12 4470.15 1556.91L4523.33 1572.38C4528.93 1574.01 4533.4 1587.38 4533.4 1602.26V1737.13C4533.4 1752.03 4528.93 1763.55 4523.33 1762.87Z" fill="#76B3E5" fill-opacity="0.11"/>
<path d="M4601.82 1772.42L4555.88 1766.82C4550.56 1766.18 4546.21 1753.69 4546.21 1738.97V1605.66C4546.21 1590.96 4550.56 1580.29 4555.88 1581.8L4601.82 1595.15C4606.65 1596.57 4610.53 1608.94 4610.53 1622.81V1748.35C4610.53 1762.24 4606.65 1772.99 4601.82 1772.42Z" fill="#F2FBFE" fill-opacity="0.11"/>
<path d="M2849.84 991.452L2497.84 877.321C2453.43 862.921 2416.52 816.053 2416.52 773.027V383.286C2416.52 340.228 2453.43 323.529 2497.84 345.388L2849.84 518.906C2883.98 535.701 2911.03 578.615 2911.03 615.083V945.276C2911.03 981.76 2883.98 1002.54 2849.84 991.452Z" fill="#324DA8" fill-opacity="0.11"/>
<path d="M3287.76 1133.46L3041.94 1053.74C3011.61 1043.92 2986.52 1007.04 2986.52 971.58V650.452C2986.52 614.996 3011.61 598.603 3041.94 613.566L3287.76 734.704C3312.13 746.726 3331.47 781.298 3331.47 812.173V1091.74C3331.47 1122.63 3312.13 1141.39 3287.76 1133.46Z" fill="#F2FBFE" fill-opacity="0.11"/>
<path d="M3850.88 1316.11L3711.58 1270.93C3694.87 1265.53 3681.11 1239.78 3681.11 1213.56V976.093C3681.11 949.863 3694.87 935.382 3711.58 943.611L3850.88 1012.26C3865.02 1019.23 3876.34 1043.98 3876.34 1067.61V1281.58C3876.34 1305.21 3865.02 1320.7 3850.88 1316.11Z" fill="#DBEEF7" fill-opacity="0.11"/>
<path d="M4325.13 1469.91L4251.02 1445.89C4242.32 1443.07 4235.17 1425.45 4235.17 1406.58V1235.83C4235.17 1216.96 4242.32 1205.19 4251.02 1209.47L4325.13 1246C4332.83 1249.81 4339.02 1267.02 4339.02 1284.51V1442.78C4339.02 1460.25 4332.83 1472.4 4325.13 1469.91Z" fill="#5169AE" fill-opacity="0.11"/>
<path d="M4432.22 1504.63L4369.84 1484.4C4362.58 1482.05 4356.61 1466.14 4356.61 1448.88V1292.73C4356.61 1275.49 4362.58 1264.44 4369.84 1268.04L4432.22 1298.79C4438.73 1301.99 4443.99 1317.61 4443.99 1333.68V1479.32C4443.99 1495.42 4438.73 1506.75 4432.22 1504.63Z" fill="#DBEEF7" fill-opacity="0.11"/>
<path d="M4601.82 1559.63L4555.88 1544.75C4550.56 1543.03 4546.21 1529.69 4546.21 1514.95V1381.63C4546.21 1366.9 4550.56 1357.12 4555.88 1359.75L4601.82 1382.38C4606.65 1384.76 4610.53 1397.92 4610.53 1411.78V1537.35C4610.53 1551.24 4606.65 1561.2 4601.82 1559.63Z" fill="#DBEEF7" fill-opacity="0.11"/>
<path d="M3287.76 654.778L3041.94 525.331C3011.61 509.339 2986.52 467.389 2986.52 431.917V110.806C2986.52 75.3342 3011.61 64.0188 3041.94 85.122L3287.76 256.004C3312.13 272.929 3331.47 311.454 3331.47 342.313V621.894C3331.47 652.785 3312.13 667.588 3287.76 654.778" fill="#D7EFFB" fill-opacity="0.11"/>
<path d="M3607.33 823.073L3426.02 727.586C3403.98 715.966 3385.82 681.989 3385.82 651.804V378.766C3385.82 348.598 3403.98 336.8 3426.02 352.134L3607.33 478.19C3625.59 490.871 3640.14 522.662 3640.14 549.455V791.86C3640.14 818.653 3625.59 832.684 3607.33 823.073Z" fill="#F2FBFE" fill-opacity="0.11"/>
<path d="M3850.88 951.337L3711.58 877.998C3694.87 869.174 3681.11 840.678 3681.11 814.464V576.961C3681.11 550.731 3694.87 539.03 3711.58 550.667L3850.88 647.487C3865.02 657.34 3876.34 684.357 3876.34 708.016V921.957C3876.34 945.583 3865.02 958.811 3850.88 951.337" fill="#324DA8" fill-opacity="0.11"/>
<path d="M4042.58 1052.32L3932.26 994.201C3919.14 987.289 3908.36 962.795 3908.36 939.602V729.503C3908.36 706.263 3919.14 694.964 3932.26 704.077L4042.58 780.774C4053.92 788.65 4062.97 812.084 4062.97 833.235V1024.74C4062.97 1045.91 4053.92 1058.28 4042.58 1052.32Z" fill="#DBEEF7" fill-opacity="0.11"/>
<path d="M4197.43 1133.87L4107.89 1086.69C4097.32 1081.15 4088.66 1059.69 4088.66 1038.89V850.46C4088.66 829.679 4097.32 818.829 4107.89 826.175L4197.43 888.407C4206.69 894.868 4214.1 915.537 4214.1 934.68V1107.97C4214.1 1127.1 4206.69 1138.72 4197.43 1133.87" fill="#76B3E5" fill-opacity="0.11"/>
<path d="M4523.33 1305.49L4470.15 1277.46C4463.96 1274.21 4458.87 1258.69 4458.87 1242.79V1098.96C4458.87 1083.1 4463.96 1073.72 4470.15 1078.02L4523.33 1115C4528.93 1118.87 4533.4 1134.09 4533.4 1148.98V1283.82C4533.4 1298.74 4528.93 1308.43 4523.33 1305.49Z" fill="#76B3E5" fill-opacity="0.11"/>
<path d="M4601.82 1346.82L4555.88 1322.63C4550.56 1319.83 4546.21 1305.61 4546.21 1290.87V1157.56C4546.21 1142.84 4550.56 1133.94 4555.88 1137.62L4601.82 1169.57C4606.65 1172.93 4610.53 1186.88 4610.53 1200.73V1326.31C4610.53 1340.18 4606.65 1349.36 4601.82 1346.82Z" fill="#76B3E5" fill-opacity="0.11"/>
<path d="M4523.33 1076.81L4470.15 1038.02C4463.96 1033.52 4458.87 1016.94 4458.87 1001.06V857.241C4458.87 841.361 4463.96 833.019 4470.15 838.564L4523.33 886.332C4528.93 891.33 4533.4 907.419 4533.4 922.334V1057.17C4533.4 1072.08 4528.93 1080.89 4523.33 1076.81" fill="#D7EFFB" fill-opacity="0.11"/>
<path d="M4601.82 1134.03L4555.88 1100.55C4550.56 1096.65 4546.21 1081.54 4546.21 1066.82V933.513C4546.21 918.807 4550.56 910.771 4555.88 915.544L4601.82 956.754C4606.65 961.093 4610.53 975.832 4610.53 989.702V1115.28C4610.53 1129.13 4606.65 1137.54 4601.82 1134.03" fill="#D7EFFB" fill-opacity="0.11"/>
<path d="M4042.58 400.368L3932.26 297.633C3919.14 285.418 3908.36 256.568 3908.36 233.359V23.2278C3908.36 0.0192168 3919.14 -6.90804 3932.26 7.52502L4042.58 128.84C4053.92 141.312 4062.97 168.426 4062.97 189.578V381.065C4062.97 402.216 4053.92 410.927 4042.58 400.368Z" fill="#F2FBFE" fill-opacity="0.11"/>
<path d="M4325.13 663.523L4251.02 594.476C4242.32 586.391 4235.17 564.452 4235.17 545.583V374.813C4235.17 355.96 4242.32 348.535 4251.02 358.082L4325.13 439.617C4332.83 448.088 4339.02 469.078 4339.02 486.549V644.815C4339.02 662.269 4332.83 670.675 4325.13 663.523" fill="#DBEEF7" fill-opacity="0.11"/>
<path d="M4671.63 2575.62L4631.73 2603.09C4627.11 2606.22 4623.35 2597.72 4623.35 2584.01V2460.01C4623.35 2446.3 4627.11 2433.25 4631.73 2430.86L4671.63 2410.14C4675.86 2407.94 4679.24 2416.7 4679.24 2429.67V2546.93C4679.24 2559.89 4675.86 2572.75 4671.63 2575.62" fill="#F2FBFE" fill-opacity="0.11"/>
<path d="M4784.3 2498.17L4753.19 2519.57C4749.59 2522.02 4746.69 2514.25 4746.69 2502.22V2393.04C4746.69 2380.99 4749.59 2369.69 4753.19 2367.79L4784.3 2351.66C4787.6 2349.95 4790.27 2357.89 4790.27 2369.35V2473.28C4790.27 2484.75 4787.6 2495.89 4784.3 2498.17Z" fill="#F2FBFE" fill-opacity="0.11"/>
<path d="M4831.46 2465.73L4803.69 2484.84C4800.49 2487.03 4797.88 2479.58 4797.88 2468.2V2365.21C4797.88 2353.85 4800.49 2343.27 4803.69 2341.6L4831.46 2327.19C4834.43 2325.64 4836.83 2333.23 4836.83 2344.08V2442.39C4836.83 2453.27 4834.43 2463.7 4831.46 2465.73" fill="#DBEEF7" fill-opacity="0.11"/>
<path d="M4671.63 2376.95L4631.73 2396.32C4627.11 2398.55 4623.35 2389.28 4623.35 2375.57V2251.57C4623.35 2237.84 4627.11 2225.58 4631.73 2224.1L4671.63 2211.49C4675.86 2210.12 4679.24 2219.57 4679.24 2232.49V2349.8C4679.24 2362.77 4675.86 2374.89 4671.63 2376.95Z" fill="#DBEEF7" fill-opacity="0.11"/>
<path d="M4831.46 2299.39L4803.69 2312.88C4800.49 2314.43 4797.88 2306.45 4797.88 2295.08V2192.09C4797.88 2180.71 4800.49 2170.68 4803.69 2169.64L4831.46 2160.83C4834.43 2159.93 4836.83 2167.97 4836.83 2178.83V2277.16C4836.83 2288.01 4834.43 2297.96 4831.46 2299.39" fill="#DBEEF7" fill-opacity="0.11"/>
<path d="M3850.88 3883.32L3711.58 4036.52C3694.87 4054.91 3681.11 4048.77 3681.11 4022.54V3785.07C3681.11 3758.84 3694.87 3724.77 3711.58 3709.19L3850.88 3579.49C3865.02 3566.27 3876.34 3574.89 3876.34 3598.52V3812.47C3876.34 3836.12 3865.02 3867.75 3850.88 3883.32" fill="#F2FBFE" fill-opacity="0.11"/>
<path d="M4042.58 3672.44L3932.26 3793.76C3919.14 3808.21 3908.36 3801.26 3908.36 3778.02V3567.92C3908.36 3544.75 3919.14 3515.87 3932.26 3503.65L4042.58 3400.92C4053.92 3390.36 4062.97 3399.05 4062.97 3420.2V3611.71C4062.97 3632.84 4053.92 3659.99 4042.58 3672.44Z" fill="#DBEEF7" fill-opacity="0.11"/>
<path d="M4432.22 3243.86L4369.84 3312.47C4362.58 3320.49 4356.61 3313.05 4356.61 3295.81V3139.66C4356.61 3122.42 4362.58 3102.89 4369.84 3096.11L4432.22 3038.02C4438.73 3031.96 4443.99 3040.11 4443.99 3056.17V3201.8C4443.99 3217.89 4438.73 3236.69 4432.22 3243.86Z" fill="#D7EFFB" fill-opacity="0.11"/>
<path d="M4523.33 3143.63L4470.15 3202.15C4463.96 3208.95 4458.87 3201.62 4458.87 3185.78V3041.96C4458.87 3026.05 4463.96 3008.46 4470.15 3002.69L4523.33 2953.13C4528.93 2947.94 4533.4 2955.84 4533.4 2970.73V3105.59C4533.4 3120.46 4528.93 3137.49 4523.33 3143.63" fill="#DBEEF7" fill-opacity="0.11"/>
<path d="M3607.33 3737.13L3426.02 3899.91C3403.98 3919.66 3385.82 3911.5 3385.82 3881.38V3608.34C3385.82 3578.2 3403.98 3540.48 3426.02 3524.41L3607.33 3392.23C3625.59 3378.94 3640.14 3390.06 3640.14 3416.82V3659.22C3640.14 3686 3625.59 3720.75 3607.33 3737.13" fill="#D7EFFB" fill-opacity="0.11"/>
<path d="M3850.88 3518.57L3711.58 3643.58C3694.87 3658.57 3681.11 3649.64 3681.11 3623.42V3385.97C3681.11 3359.74 3694.87 3328.43 3711.58 3316.25L3850.88 3214.72C3865.02 3204.4 3876.34 3215.29 3876.34 3238.92V3452.88C3876.34 3476.52 3865.02 3505.84 3850.88 3518.57" fill="#DBEEF7" fill-opacity="0.11"/>
<path d="M4197.43 3207.46L4107.89 3287.83C4097.32 3297.32 4088.66 3288.25 4088.66 3267.42V3079.02C4088.66 3058.21 4097.32 3035.01 4107.89 3027.32L4197.43 2962.04C4206.69 2955.29 4214.1 2965.42 4214.1 2984.55V3157.86C4214.1 3176.98 4206.69 3199.15 4197.43 3207.46" fill="#F2FBFE" fill-opacity="0.11"/>
<path d="M4432.22 2996.72L4369.84 3052.71C4362.58 3059.23 4356.61 3050.6 4356.61 3033.35V2877.23C4356.61 2859.96 4362.58 2841.66 4369.84 2836.35L4432.22 2790.87C4438.73 2786.13 4443.99 2795.35 4443.99 2811.44V2957.04C4443.99 2973.13 4438.73 2990.87 4432.22 2996.72" fill="#DBEEF7" fill-opacity="0.11"/>
<path d="M4523.33 2914.96L4470.15 2962.71C4463.96 2968.27 4458.87 2959.93 4458.87 2944.06V2800.23C4458.87 2784.33 4463.96 2767.78 4470.15 2763.28L4523.33 2724.46C4528.93 2720.4 4533.4 2729.21 4533.4 2744.09V2878.94C4533.4 2893.84 4528.93 2909.96 4523.33 2914.96" fill="#F2FBFE" fill-opacity="0.11"/>
<path d="M4671.63 2781.83L4631.73 2817.68C4627.11 2821.8 4623.35 2814.05 4623.35 2800.37V2676.37C4623.35 2662.65 4627.11 2648.81 4631.73 2645.45L4671.63 2616.34C4675.86 2613.27 4679.24 2621.31 4679.24 2634.26V2751.55C4679.24 2764.5 4675.86 2778.06 4671.63 2781.83Z" fill="#DBEEF7" fill-opacity="0.11"/>
<path d="M4731.39 2728.19L4696.29 2759.71C4692.22 2763.36 4688.94 2755.91 4688.94 2743.06V2626.93C4688.94 2614.12 4692.22 2601.31 4696.29 2598.37L4731.39 2572.77C4735.11 2570.05 4738.11 2577.75 4738.11 2589.93V2700.11C4738.11 2712.29 4735.11 2724.83 4731.39 2728.19Z" fill="#D7EFFB" fill-opacity="0.11"/>
<path d="M4671.63 2178.3L4631.73 2189.57C4627.11 2190.87 4623.35 2180.82 4623.35 2167.16V2043.11C4623.35 2029.44 4627.11 2017.9 4631.73 2017.37L4671.63 2012.79C4675.86 2012.3 4679.24 2022.43 4679.24 2035.4V2152.68C4679.24 2165.63 4675.86 2177.11 4671.63 2178.3" fill="#324DA8" fill-opacity="0.11"/>
<path d="M4784.3 2146.43L4753.19 2155.22C4749.59 2156.27 4746.69 2147.28 4746.69 2135.24V2026.05C4746.69 2014.01 4749.59 2003.9 4753.19 2003.48L4784.3 1999.95C4787.6 1999.54 4790.27 2008.54 4790.27 2020.05V2123.94C4790.27 2135.42 4787.6 2145.48 4784.3 2146.43Z" fill="#DBEEF7" fill-opacity="0.11"/>
<path d="M4831.46 2133.08L4803.69 2140.94C4800.49 2141.86 4797.88 2133.34 4797.88 2121.96V2018.97C4797.88 2007.61 4800.49 1998.06 4803.69 1997.72L4831.46 1994.54C4834.43 1994.2 4836.83 2002.74 4836.83 2013.59V2111.9C4836.83 2122.75 4834.43 2132.25 4831.46 2133.08Z" fill="#F2FBFE" fill-opacity="0.11"/>
<path d="M4873.76 2121.15L4848.82 2128.17C4845.96 2128.99 4843.66 2120.92 4843.66 2110.14V2012.66C4843.66 2001.89 4845.96 1992.87 4848.82 1992.55L4873.76 1989.72C4876.45 1989.39 4878.58 1997.52 4878.58 2007.82V2101.11C4878.58 2111.41 4876.45 2120.38 4873.76 2121.15" fill="#5169AE" fill-opacity="0.11"/>
<path d="M4671.63 1979.6L4631.73 1982.81C4627.11 1983.18 4623.35 1972.4 4623.35 1958.67V1834.64C4623.35 1820.98 4627.11 1810.2 4631.73 1810.6L4671.63 1814.12C4675.86 1814.5 4679.24 1825.29 4679.24 1838.26V1955.54C4679.24 1968.51 4675.86 1979.28 4671.63 1979.6" fill="#DBEEF7" fill-opacity="0.11"/>
<path d="M4731.39 1974.81L4696.29 1977.64C4692.22 1977.94 4688.94 1967.83 4688.94 1955.01V1838.87C4688.94 1826.04 4692.22 1815.95 4696.29 1816.3L4731.39 1819.37C4735.11 1819.73 4738.11 1829.85 4738.11 1842.02V1952.24C4738.11 1964.41 4735.11 1974.52 4731.39 1974.81Z" fill="#F2FBFE" fill-opacity="0.11"/>
<path d="M4831.46 1966.75L4803.69 1969C4800.49 1969.22 4797.88 1960.22 4797.88 1948.86V1845.87C4797.88 1834.46 4800.49 1825.49 4803.69 1825.75L4831.46 1828.2C4834.43 1828.46 4836.83 1837.48 4836.83 1848.33V1946.66C4836.83 1957.52 4834.43 1966.52 4831.46 1966.75Z" fill="#324DA8" fill-opacity="0.11"/>
<path d="M4873.76 1963.37L4848.82 1965.38C4845.96 1965.58 4843.66 1957.05 4843.66 1946.28V1848.79C4843.66 1838 4845.96 1829.5 4848.82 1829.76L4873.76 1831.94C4876.45 1832.17 4878.58 1840.72 4878.58 1851.04V1944.32C4878.58 1954.62 4876.45 1963.16 4873.76 1963.37Z" fill="#76B3E5" fill-opacity="0.11"/>
<path d="M4671.63 1780.94L4631.73 1776.07C4627.11 1775.51 4623.35 1763.94 4623.35 1750.24V1626.23C4623.35 1612.52 4627.11 1602.49 4631.73 1603.86L4671.63 1615.45C4675.86 1616.67 4679.24 1628.16 4679.24 1641.1V1758.41C4679.24 1771.36 4675.86 1781.44 4671.63 1780.94" fill="#D7EFFB" fill-opacity="0.11"/>
<path d="M4784.3 1794.67L4753.19 1790.88C4749.59 1790.43 4746.69 1780.34 4746.69 1768.27V1659.09C4746.69 1647.03 4749.59 1638.11 4753.19 1639.13L4784.3 1648.17C4787.6 1649.14 4790.27 1659.2 4790.27 1670.71V1774.62C4790.27 1786.09 4787.6 1795.08 4784.3 1794.67Z" fill="#F2FBFE" fill-opacity="0.11"/>
<path d="M4831.46 1800.42L4803.69 1797.03C4800.49 1796.64 4797.88 1787.09 4797.88 1775.73V1672.72C4797.88 1661.33 4800.49 1652.86 4803.69 1653.79L4831.46 1661.86C4834.43 1662.74 4836.83 1672.23 4836.83 1683.09V1781.41C4836.83 1792.27 4834.43 1800.77 4831.46 1800.42" fill="#DBEEF7" fill-opacity="0.11"/>
<path d="M4671.63 1582.26L4631.73 1569.34C4627.11 1567.83 4623.35 1555.5 4623.35 1541.79V1417.79C4623.35 1404.08 4627.11 1394.84 4631.73 1397.11L4671.63 1416.76C4675.86 1418.87 4679.24 1431.02 4679.24 1443.98V1561.29C4679.24 1574.23 4675.86 1583.63 4671.63 1582.26Z" fill="#F2FBFE" fill-opacity="0.11"/>
<path d="M4731.39 1601.63L4696.29 1590.27C4692.22 1588.95 4688.94 1577.47 4688.94 1564.66V1448.52C4688.94 1435.7 4692.22 1426.92 4696.29 1428.92L4731.39 1446.21C4735.11 1448.09 4738.11 1459.42 4738.11 1471.61V1581.78C4738.11 1593.98 4735.11 1602.87 4731.39 1601.63" fill="#76B3E5" fill-opacity="0.11"/>
<path d="M4671.63 1383.6L4631.73 1362.58C4627.11 1360.15 4623.35 1347.07 4623.35 1333.36V1209.34C4623.35 1195.62 4627.11 1187.13 4631.73 1190.35L4671.63 1218.09C4675.86 1221.04 4679.24 1233.89 4679.24 1246.86V1364.14C4679.24 1377.11 4675.86 1385.82 4671.63 1383.6" fill="#D7EFFB" fill-opacity="0.11"/>
<path d="M4731.39 1415.06L4696.29 1396.6C4692.22 1394.46 4688.94 1382.32 4688.94 1369.48V1253.37C4688.94 1240.55 4692.22 1232.43 4696.29 1235.25L4731.39 1259.66C4735.11 1262.25 4738.11 1274.19 4738.11 1286.37V1396.6C4738.11 1408.75 4735.11 1417.02 4731.39 1415.06Z" fill="#F2FBFE" fill-opacity="0.11"/>
<path d="M4784.3 1442.91L4753.19 1426.54C4749.59 1424.65 4746.69 1413.35 4746.69 1401.28V1292.11C4746.69 1280.06 4749.59 1272.3 4753.19 1274.79L4784.3 1296.42C4787.6 1298.74 4790.27 1309.89 4790.27 1321.35V1425.29C4790.27 1436.77 4787.6 1444.69 4784.3 1442.91" fill="#324DA8" fill-opacity="0.11"/>
<path d="M4523.33 848.142L4470.15 798.575C4463.96 792.805 4458.87 775.206 4458.87 759.326V615.509C4458.87 599.63 4463.96 592.317 4470.15 599.116L4523.33 657.652C4528.93 663.791 4533.4 680.78 4533.4 695.679V830.543C4533.4 845.442 4528.93 853.334 4523.33 848.142" fill="#D7EFFB" fill-opacity="0.11"/>
</svg>
